<?xml version="1.0" encoding="UTF-8"?>
<svg xmlns="http://www.w3.org/2000/svg" viewBox="0 0 1304 393" fill="none" role="img" aria-label="OutlabsTaskq">
  <path fill="#0a0a0a" fill-rule="evenodd" d="M 548.5 328.852081 C 501.75 328.788635 461.940674 328.458466 460.034851 328.118347 C 457.771423 327.714447 456.080872 326.626923 455.160217 324.982666 C 453.832886 322.611969 454.355896 321.157593 464.136963 300.018311 C 474.395691 277.846558 474.583252 277.534058 479.431946 274.535645 C 484.340881 271.5 484.340881 271.5 560.42041 271 C 635.921631 270.503815 636.530396 270.483643 640.5 268.347321 C 642.700012 267.16333 645.461731 265.138336 646.637146 263.847321 C 647.812561 262.556305 649.725098 259.605438 650.887146 257.289825 C 652.049194 254.974243 653 251.521271 653 249.616577 C 653 247.370758 652.11084 245.096771 650.470459 243.147278 C 649.016479 241.419342 645.933838 239.495361 643.220459 238.622375 C 640.624207 237.787079 630.849976 235.509247 621.5 233.560516 C 612.150024 231.611816 596.625 228.418152 587 226.463531 C 577.375 224.508911 564.61731 221.819458 558.649536 220.487 C 552.681763 219.15451 544.668396 216.621307 540.842041 214.857605 C 537.015686 213.093933 531.902405 209.905762 529.479248 207.772827 C 526.820007 205.432068 523.770569 201.247925 521.786743 197.217926 C 518.67572 190.898132 518.504639 189.978668 518.586548 180.020569 C 518.658081 171.324036 519.147217 168.112976 521.407837 161.5 C 522.911926 157.100006 526.317017 149 528.97467 143.5 C 531.632324 138 536.159485 129.899994 539.035034 125.5 C 541.910522 121.099976 546.54541 114.858398 549.334717 111.629761 C 552.124023 108.401123 557.352295 103.52002 560.953125 100.782837 C 564.553894 98.045654 570.520264 94.277771 574.21167 92.40979 C 577.903076 90.541809 584.878113 87.776184 589.71167 86.263916 C 598.5 83.514404 598.5 83.514404 692.383423 83.222961 C 780.911499 82.948181 786.378052 83.032166 788.216064 84.695496 C 789.58606 85.935425 790.035278 87.35675 789.727905 89.479736 C 789.487549 91.140869 785.342773 100.825012 780.517334 111 C 775.692017 121.174988 770.380127 130.945129 768.713257 132.711395 C 767.046387 134.477661 764.223389 136.615143 762.440186 137.461395 C 759.620117 138.799591 750.290283 139 690.80896 139 C 632.860229 139 621.529785 139.231934 616.587463 140.519226 C 613.379456 141.354828 609.477783 142.947723 607.917114 144.059021 C 606.356445 145.170319 604.101746 147.452759 602.906616 149.131104 C 601.711548 150.809479 600.512573 154.145081 600.242188 156.543579 C 599.810242 160.376007 600.10907 161.262909 602.708191 163.86203 C 604.334839 165.488678 607.428406 167.325348 609.582886 167.943542 C 611.737305 168.561737 621.599976 170.795746 631.5 172.90802 C 641.400024 175.020294 656.700012 178.199738 665.5 179.97345 C 674.299988 181.747131 687.565002 184.502441 694.977783 186.096344 C 703.412048 187.909851 711.188354 190.292084 715.758118 192.46228 C 720.383301 194.658752 725.009644 197.879181 728.376587 201.246094 C 731.997559 204.867096 734.434937 208.465118 736.021362 212.531006 C 737.820923 217.143402 738.367188 220.574707 738.425049 227.628601 C 738.473389 233.510712 737.831421 239.378784 736.620239 244.128601 C 735.586304 248.182861 732.821045 255.879883 730.475098 261.233093 C 728.129272 266.586304 724.049805 274.650726 721.409668 279.154022 C 718.769653 283.657318 713.554443 291.048798 709.820435 295.579529 C 706.086487 300.11026 699.986816 306.123566 696.265686 308.942474 C 692.544556 311.761383 685.450012 316.08197 680.5 318.543762 C 675.549988 321.005585 667.900024 323.937347 663.5 325.058777 C 659.099976 326.180206 650.549988 327.518433 644.5 328.032593 C 638.450012 328.546783 595.25 328.915527 548.5 328.852081 Z M 325.583374 327.850159 C 275.487549 327.767761 233.150024 327.513641 231.5 327.285461 C 229.849976 327.057281 225.835999 326.192535 222.579956 325.363861 C 219.323914 324.535156 213.947144 322.487701 210.63147 320.813965 C 207.315796 319.140228 202.294037 315.405823 199.472015 312.51532 C 195.887421 308.843781 193.618164 305.337067 191.942474 300.879944 C 190.005615 295.728149 189.55365 292.671234 189.594574 285 C 189.635254 277.374084 190.182648 273.921844 192.369385 267.5 C 193.867676 263.100006 197.86264 253.907104 201.247162 247.07135 C 204.631653 240.235565 209.613708 231.235565 212.318359 227.07135 C 215.023071 222.907104 221.345398 215.432037 226.367981 210.460083 C 231.401611 205.477173 239.000183 199.246094 243.299133 196.575928 C 247.588684 193.911621 255.013672 190.050201 259.799133 187.995026 C 264.584595 185.93985 272.588928 183.304138 277.586487 182.137909 C 282.584106 180.97168 290.909058 179.57135 296.086487 179.026093 C 301.263916 178.480804 328.316345 178.026855 356.202942 178.017334 C 393.465027 178.004608 407.60376 177.682007 409.538574 176.800476 C 411.450256 175.929474 413.416748 172.985504 416.719482 166.050476 C 419.839966 159.498047 421.411011 154.773468 421.724121 151 C 422.150696 145.859711 421.974182 145.303802 419.025024 142.5 C 415.869507 139.5 415.869507 139.5 350.184753 139.276825 C 314.058167 139.154053 282.555054 138.784119 280.177917 138.454742 C 277.800781 138.125336 274.943726 136.943726 273.828918 135.828949 C 272.50354 134.50354 271.937927 132.876373 272.19458 131.127411 C 272.410522 129.656342 276.092285 121.038391 280.376282 111.976379 C 284.660278 102.914368 289.268311 93.799316 290.616272 91.720703 C 292.085999 89.454346 294.897095 87.052368 297.638245 85.720703 C 302.209351 83.5 302.209351 83.5 383.864014 83.5 C 446.390442 83.5 467.039185 83.801331 472.009338 84.786438 C 475.579224 85.493958 481.733093 87.641479 485.684692 89.558777 C 490.356567 91.8255 494.274841 94.641357 496.887878 97.609985 C 499.098083 100.120911 501.820801 104.064087 502.938354 106.37262 C 504.055847 108.681091 505.42688 112.978088 505.985107 115.921448 C 506.543274 118.864807 507 123.628845 507 126.50827 C 507 129.387665 505.926636 135.974762 504.614807 141.14624 C 502.921753 147.820404 497.553528 160.770905 486.115417 185.774719 C 477.252625 205.148926 463.697571 234.723846 455.993042 251.496796 C 448.288513 268.269714 437.926208 290.882111 432.965637 301.746521 C 425.975159 317.056793 423.127747 322.231018 420.306641 324.75 C 416.666809 328 416.666809 328 325.583374 327.850159 Z M 861.072388 210.5 C 858.754639 212.825012 854.974976 220.25 851.177856 228.5 C 847.380737 236.75 841.483887 249.799988 838.073608 257.5 C 834.663452 265.200012 826.839355 282.711731 820.686646 296.414978 C 811.014771 317.956268 808.979858 321.747711 805.658691 324.414978 C 801.817261 327.5 801.817261 327.5 767.564941 327.786865 C 735.425171 328.056 733.171021 327.959045 731.016724 326.2146 C 729.27478 324.804047 728.840332 323.649139 729.216187 321.427765 C 729.488647 319.817505 735.844238 304.659302 743.3396 287.742889 C 750.835083 270.826477 764.626709 239.664795 773.987793 218.49472 C 783.348999 197.324615 796.861084 166.72995 804.014893 150.506561 C 811.168579 134.283173 823.555054 106.163147 831.540405 88.017639 C 839.525635 69.87207 850.543823 44.782471 856.025269 32.262878 C 861.506592 19.743286 866.82312 8.375 867.839722 7 C 868.856323 5.625 871.445679 3.494873 873.593994 2.266479 C 877.427856 0.074158 878.140259 0.032593 912.13916 0.016479 C 944.762329 0.000977 946.915771 0.111206 949.138062 1.910706 C 951.466797 3.796387 951.476074 3.878052 949.847046 8.160706 C 948.939209 10.547302 935.693237 39.950012 920.411621 73.5 C 905.130005 107.049988 890.384766 139.674988 887.644409 146 C 884.904175 152.325012 882.477539 158.424072 882.252075 159.553497 C 881.957764 161.027039 882.598389 161.95163 884.520386 162.827332 C 887.057129 163.983154 887.629639 163.678986 895.349365 157.074036 C 899.832153 153.238525 919.474976 136.292908 939 119.417114 C 963.152588 98.541565 976.258057 87.897339 980 86.116882 C 985.5 83.5 985.5 83.5 1024 83.174622 C 1055.026733 82.912354 1062.985229 83.112976 1065 84.208008 C 1066.375 84.955383 1067.636719 86.509827 1067.803711 87.662415 C 1068.039673 89.290405 1065.156738 92.183899 1054.884644 100.629028 C 1047.612183 106.608032 1019.350464 130.066772 992.080933 152.759521 C 955.572998 183.140167 942.275757 194.767029 941.649414 196.855896 C 940.931396 199.250702 942.596191 204.04071 952.33374 227.596375 C 958.678101 242.943359 969.592896 269.450012 976.589111 286.5 C 983.585205 303.549988 989.518433 318.755249 989.773926 320.289459 C 990.07312 322.085754 989.606812 323.776917 988.464355 325.039459 C 986.767944 326.91391 985.191162 327 952.556885 327 C 919.130981 327 918.33252 326.953369 914.020386 324.75 C 911.598633 323.512512 908.816528 321.375 907.838013 320 C 906.859619 318.625 901.947388 307.600006 896.921997 295.5 C 891.896606 283.399994 884.950684 266.75 881.486694 258.5 C 878.022583 250.25 872.430298 236.75 869.059204 228.5 C 865.688232 220.25 862.512085 212.825012 862.001221 212 Z M 60.955627 138.5 C 5.82019 137.5 5.82019 137.5 3.825775 135.035095 C 2.480499 133.372437 1.97464 131.582336 2.271576 129.535095 C 2.513702 127.865784 6.420807 118.625 10.954041 109 C 15.487305 99.375 20.329987 90.295166 21.715637 88.822632 C 23.101257 87.350098 25.641876 85.562561 27.36145 84.850281 C 29.604889 83.921021 35.714813 83.612732 48.993958 83.758728 C 59.172272 83.870667 71.959229 83.63324 77.409393 83.23114 L 87.318787 82.5 L 101.729828 51 C 109.655884 33.674988 117.346649 18.221313 118.820435 16.658447 C 120.294189 15.09552 123.299988 12.84552 125.5 11.658447 C 129.277924 9.619812 131.054535 9.481812 157.5 9.172241 C 176.354187 8.951599 186.739929 9.214172 189.296021 9.976196 C 191.741394 10.7052 193.504791 12.013794 194.252136 13.654053 C 195.172852 15.674805 195.093628 17.05658 193.868195 20.350098 C 193.018951 22.632568 189.043915 31.688904 185.03479 40.475403 C 181.025665 49.261841 175.145752 62.311829 171.968353 69.475403 L 166.191223 82.5 L 172.845612 83.185669 C 176.505524 83.562805 195.021393 83.878906 213.992004 83.888 C 232.962585 83.897156 249.493225 84.157959 250.726746 84.46759 C 252.061035 84.802429 253.234497 86.08606 253.623596 87.636414 C 254.080566 89.457214 253.37146 92.239624 251.27002 96.871216 C 249.615845 100.517029 245.475586 109.349976 242.069519 116.5 C 238.663452 123.650024 234.718811 130.712891 233.30365 132.195313 C 231.888489 133.677734 228.982117 135.59024 226.845032 136.445313 C 223.55835 137.760406 216.827759 138 183.170898 138 C 152.830933 138 143.015228 138.296844 141.8367 139.25 C 140.986664 139.9375 134.819458 152.534698 128.131866 167.243805 C 121.444244 181.952881 110.052917 206.927887 102.81781 222.743805 C 95.582703 238.559723 89.229065 253.524994 88.698608 256 C 87.941772 259.53125 88.077942 261.315033 89.331085 264.28598 C 90.461212 266.965302 92.034698 268.572998 94.71402 269.78598 C 97.986511 271.267548 102.882538 271.54245 130.81311 271.81311 C 161.790009 272.113251 163.210602 272.210602 165.167267 274.167267 C 166.63858 275.63858 167.051178 276.99408 166.645355 279.023224 C 166.335724 280.571411 162.400665 290.312042 157.900818 300.669067 C 153.40097 311.026062 148.570526 320.740356 147.166473 322.256317 C 145.762451 323.772308 143.013123 325.457306 141.056854 326.000763 C 138.911926 326.596619 119.835419 326.917633 93 326.809448 C 68.524994 326.710754 46.024994 326.466309 43 326.266174 C 39.975006 326.06604 34.683472 325.254822 31.241058 324.46347 C 27.798645 323.672119 22.695557 321.865936 19.900848 320.449768 C 17.10614 319.033569 12.764679 315.99054 10.253143 313.687439 C 7.741577 311.384338 4.587952 307.112946 3.245026 304.195404 C 1.612244 300.648102 0.628052 296.332611 0.274109 291.168518 C -0.130707 285.26236 0.240051 281.487823 1.850647 275.118774 C 3.191132 269.817871 11.115387 250.746948 23.654022 222.64566 C 34.487671 198.36554 47.312469 169.5 52.153595 158.5 Z M 319.5 272.865906 C 348.736816 272.902496 357.322937 272.619019 360.422119 271.514771 C 362.579224 270.746185 365.567871 268.853455 367.063538 267.308685 C 368.559143 265.763916 373.156128 257.251343 377.278992 248.391876 C 381.401855 239.53244 385.072937 231.34549 385.436951 230.1987 C 386.03717 228.307556 385.652344 228.085083 381.299377 227.806793 C 378.659729 227.638062 359.388916 227.725006 338.475342 228 C 300.450684 228.5 300.450684 228.5 293.701599 231.824341 C 288.607849 234.333344 285.983093 236.432709 282.999878 240.383911 C 280.825928 243.263306 277.62793 248.74234 275.893188 252.55957 C 274.148743 256.398132 272.73645 261.185181 272.733215 263.270569 C 272.729675 265.509094 273.460693 267.851593 274.532288 269.035706 C 275.525085 270.13269 277.723938 271.432831 279.41864 271.924927 C 281.113403 272.417023 299.150024 272.840454 319.5 272.865906 Z"/>
  <path fill="#ff634d" fill-rule="evenodd" d="M 1133.205811 327 C 1056.953857 327 1046.444458 326.684143 1039.380981 325.456665 C 1033.634521 324.458038 1027.921997 322.641815 1023.195923 320.31076 C 1019.178589 318.329376 1013.679932 314.719543 1010.97644 312.28894 C 1008.012817 309.624329 1004.852173 305.41394 1003.016357 301.684814 C 1001.341797 298.283173 999.460571 292.751923 998.835938 289.393127 C 998.211304 286.034363 997.938599 279.509369 998.229858 274.893127 C 998.622192 268.675323 999.648438 264.167389 1002.189819 257.5 C 1004.076538 252.549988 1009.358643 239.950012 1013.927856 229.5 C 1018.49707 219.049988 1025.766968 202.280884 1030.083252 192.235291 C 1034.399536 182.189697 1041.359619 165.989685 1045.550049 156.235291 C 1049.740479 146.480865 1055.24646 135.143585 1057.785645 131.04126 C 1060.324829 126.938965 1065.574219 120.23645 1069.451172 116.14679 C 1073.328003 112.05719 1079.425049 106.483704 1083 103.761414 C 1086.574951 101.039063 1094.449951 96.381165 1100.5 93.410461 C 1107.9104 89.771851 1114.744629 87.273499 1121.442627 85.754639 C 1131.218262 83.537903 1132.498413 83.5 1197.624268 83.5 C 1257.992798 83.5 1264.467407 83.658203 1270.681641 85.285156 C 1274.431763 86.266968 1279.525024 88.040039 1282 89.22522 C 1284.474976 90.4104 1289.23938 94.107117 1292.587524 97.440063 C 1297.027954 101.860352 1299.297852 105.123413 1300.977051 109.5 C 1302.424438 113.2724 1303.439087 118.470093 1303.709839 123.5 C 1304.0448 129.721069 1303.61731 133.501282 1301.787598 140.5 C 1300.493408 145.450012 1293.914551 162.202911 1287.168091 177.728668 C 1280.421509 193.254425 1266.524658 225.204437 1256.286133 248.728668 C 1243.44812 278.225647 1237.538086 292.95282 1237.24353 296.181152 C 1236.845093 300.546417 1237.522217 302.199554 1247.278442 320.681152 C 1253.032715 331.581512 1263.080444 350.850006 1269.606689 363.5 C 1276.934937 377.70459 1281.477783 387.647217 1281.486328 389.5 C 1281.498291 392.127716 1281.127686 392.523682 1278.5 392.690796 C 1276.507202 392.817566 1267.610596 389.240265 1252 382.035217 C 1239.074951 376.069702 1221.300049 367.861176 1212.5 363.794067 C 1203.699951 359.726929 1182.258789 349.784454 1164.852905 341.699646 Z M 1188.425415 297.691528 C 1188.937866 297.520721 1189.827759 296.634827 1190.403076 295.722839 C 1191.206055 294.449738 1190.437012 291.677277 1187.090942 283.782379 C 1184.694092 278.127075 1182.526367 272.101349 1182.273682 270.391846 C 1181.882324 267.743774 1172.606079 266.396332 1177.163574 261.288727 C 1182.182739 255.663605 1181.884888 255.092102 1202.754883 206.396881 C 1214.988159 177.853607 1223.278442 157.040192 1223.622314 155.255981 C 1223.969116 153.456665 1223.702148 150.695007 1223.022705 149.054749 C 1222.348999 147.428253 1220.605713 145.288055 1219.148926 144.298737 C 1216.703491 142.638184 1210.19165 142.538116 1177.740967 142.213867 C 1145.893311 141.89563 1133.628174 142.292297 1131.078369 142.978882 C 1128.931396 143.557007 1124.998047 145.526306 1122.337402 147.355103 C 1119.67688 149.183929 1116.273193 152.664673 1114.773804 155.090118 C 1113.274414 157.515533 1109.540283 165.738953 1104.031128 178.253235 C 1098.521973 190.767487 1088.73645 212.817505 1082.2854 227.253235 C 1073.956421 245.891388 1072.447144 251.884399 1072.179932 255.275604 C 1071.919678 258.577789 1072.320679 260.840393 1073.479492 262.609131 C 1074.401367 264.015991 1076.681152 265.804474 1078.545654 266.583527 C 1081.250854 267.713837 1082.999634 268 1110.902832 268 C 1130.641724 268 1146.961304 268.414978 1148.376099 268.952911 C 1149.754639 269.47699 1159.119995 276.227478 1169.187988 283.953949 C 1179.256104 291.68045 1187.912964 297.862366 1188.425415 297.691528 Z"/>
</svg>
